<?xml version="1.0" standalone="no"?>
<!DOCTYPE svg PUBLIC "-//W3C//DTD SVG 20010904//EN"
 "http://www.w3.org/TR/2001/REC-SVG-20010904/DTD/svg10.dtd">
<svg version="1.0" xmlns="http://www.w3.org/2000/svg"
 width="1600.000000pt" height="1600.000000pt" viewBox="0 0 1600.000000 1600.000000"
 preserveAspectRatio="xMidYMid meet">
<metadata>
Created by potrace 1.14, written by Peter Selinger 2001-2017
</metadata>
<g transform="translate(0.000000,1600.000000) scale(0.100000,-0.100000)"
fill="#000000" stroke="none">
<path d="M7648 15995 c-2 -2 -57 -6 -123 -10 -121 -6 -145 -8 -265 -20 -36 -3
-87 -8 -115 -11 -74 -7 -162 -18 -236 -30 -15 -2 -47 -6 -70 -9 -48 -6 -51 -7
-189 -30 -136 -23 -134 -23 -260 -49 -240 -51 -316 -68 -332 -77 -10 -6 -18
-8 -18 -5 0 3 -15 0 -32 -5 -18 -6 -40 -12 -48 -14 -71 -15 -257 -70 -264 -76
-6 -5 -17 -9 -26 -9 -17 0 -274 -84 -385 -125 -38 -15 -92 -35 -120 -45 -59
-21 -233 -91 -290 -116 -22 -10 -42 -18 -45 -19 -17 -5 -117 -51 -309 -141
-62 -30 -117 -54 -121 -54 -5 0 -10 -4 -12 -9 -1 -5 -32 -23 -68 -39 -83 -39
-277 -146 -388 -214 -34 -21 -67 -38 -72 -38 -6 0 -10 -3 -10 -7 0 -5 -25 -21
-55 -38 -30 -16 -55 -33 -55 -37 0 -4 -5 -8 -11 -8 -9 0 -235 -146 -249 -160
-3 -3 -25 -19 -50 -35 -69 -45 -198 -140 -318 -233 -59 -46 -120 -93 -135
-105 -16 -12 -35 -28 -43 -35 -7 -7 -42 -36 -76 -65 -146 -120 -383 -336 -501
-454 -58 -59 -211 -220 -277 -293 -125 -137 -122 -134 -160 -180 -19 -24 -39
-48 -45 -54 -5 -6 -32 -38 -60 -71 -27 -33 -54 -63 -60 -67 -5 -4 -6 -8 -2 -8
5 0 2 -6 -5 -14 -7 -7 -24 -28 -38 -45 -14 -17 -40 -48 -57 -69 -18 -20 -33
-43 -33 -49 0 -7 -3 -13 -7 -13 -5 0 -21 -20 -38 -45 -16 -24 -33 -45 -37 -45
-5 0 -8 -6 -8 -13 0 -7 -10 -23 -23 -37 -20 -23 -128 -177 -152 -218 -5 -9
-13 -19 -16 -22 -3 -3 -37 -54 -75 -115 -37 -60 -72 -111 -76 -113 -4 -2 -8
-8 -8 -13 0 -5 -22 -45 -50 -89 -27 -44 -46 -80 -42 -80 4 0 2 -4 -4 -8 -35
-24 -311 -569 -440 -867 -7 -16 -19 -46 -28 -65 -8 -20 -29 -71 -46 -115 -17
-44 -35 -89 -40 -100 -5 -11 -16 -38 -24 -60 -7 -22 -28 -80 -46 -130 -18 -49
-33 -94 -35 -100 -1 -5 -5 -17 -8 -25 -8 -21 -60 -183 -63 -195 -2 -5 -19 -66
-39 -135 -42 -144 -54 -185 -61 -220 -2 -14 -9 -39 -15 -56 -5 -17 -11 -40
-13 -51 -3 -11 -20 -94 -40 -184 -39 -182 -39 -180 -66 -334 -20 -112 -28
-160 -35 -215 -2 -17 -6 -43 -9 -58 -3 -15 -8 -49 -11 -77 -3 -27 -7 -66 -10
-85 -3 -19 -7 -60 -10 -90 -12 -130 -15 -168 -20 -210 -27 -262 -27 -1068 0
-1265 3 -16 7 -64 9 -105 3 -41 7 -91 10 -110 4 -28 16 -131 21 -185 1 -5 4
-30 8 -55 4 -25 10 -63 12 -85 3 -22 15 -94 26 -160 22 -132 23 -136 39 -215
6 -30 14 -68 16 -85 3 -16 12 -55 19 -85 8 -30 17 -69 20 -87 3 -18 19 -85 36
-150 17 -65 35 -134 39 -153 14 -58 87 -302 135 -445 50 -150 169 -464 224
-590 15 -35 57 -127 97 -215 47 -105 229 -462 278 -548 20 -35 36 -68 36 -73
0 -5 5 -9 10 -9 6 0 10 -6 10 -14 0 -7 7 -19 15 -26 8 -7 12 -16 9 -21 -3 -5
0 -9 5 -9 6 0 11 -5 11 -11 0 -6 14 -31 30 -56 17 -24 30 -48 30 -54 0 -5 5
-9 10 -9 6 0 10 -6 10 -13 0 -7 7 -22 15 -32 32 -42 166 -251 172 -267 3 -10
9 -18 14 -18 4 0 18 -18 30 -40 13 -22 26 -40 31 -40 4 0 8 -5 8 -10 0 -12
110 -163 122 -168 4 -2 8 -10 8 -17 0 -7 3 -15 8 -17 4 -1 36 -41 72 -88 35
-47 75 -96 87 -110 13 -14 23 -28 23 -31 0 -3 12 -19 28 -36 15 -16 41 -46 57
-67 17 -20 39 -47 50 -60 11 -12 34 -39 51 -59 17 -20 34 -33 38 -29 4 4 6 2
4 -4 -7 -26 472 -517 678 -694 64 -55 182 -156 205 -175 129 -107 190 -155
195 -155 4 0 12 -6 18 -14 26 -31 353 -265 546 -388 58 -38 114 -75 125 -83
10 -8 25 -15 32 -15 7 0 13 -4 13 -10 0 -5 5 -10 11 -10 6 0 29 -13 52 -28 23
-16 74 -46 112 -67 39 -22 73 -44 77 -49 4 -6 8 -7 8 -3 0 5 13 -1 29 -12 16
-12 36 -21 45 -21 9 0 16 -4 16 -9 0 -14 578 -299 625 -308 11 -2 22 -8 23
-13 2 -6 9 -10 16 -10 7 0 26 -6 42 -14 27 -13 226 -92 379 -151 39 -15 81
-29 95 -32 13 -2 29 -8 35 -12 5 -5 22 -11 37 -15 15 -3 40 -11 55 -18 15 -6
33 -12 38 -13 6 -2 48 -15 95 -30 47 -15 96 -29 109 -31 13 -3 32 -9 41 -14
10 -5 30 -12 46 -14 16 -3 45 -11 64 -17 45 -14 217 -59 250 -65 14 -3 33 -7
42 -10 10 -3 30 -7 45 -10 16 -3 44 -9 63 -14 34 -9 209 -44 273 -55 17 -3 39
-8 47 -10 8 -2 33 -6 55 -10 22 -3 65 -10 95 -15 30 -5 73 -11 95 -15 22 -3
51 -7 65 -10 24 -4 75 -10 175 -21 28 -2 65 -7 84 -9 18 -3 63 -8 100 -11 36
-2 84 -7 106 -9 272 -26 1013 -26 1270 0 108 11 174 17 215 21 68 5 155 16
241 30 15 2 47 6 70 9 48 6 51 7 189 30 136 23 134 23 260 49 240 51 316 68
333 77 9 6 17 8 17 5 0 -3 15 0 32 5 18 6 40 12 48 13 18 4 183 51 255 72 28
8 55 16 60 18 14 3 177 56 195 63 8 4 17 7 20 8 42 11 268 93 307 111 17 7 33
14 36 14 3 0 18 5 34 12 15 6 30 12 33 13 16 5 69 28 94 41 16 8 32 14 37 14
4 0 42 16 86 36 43 20 110 50 148 67 102 46 504 250 585 298 19 12 53 31 75
42 22 12 42 25 45 28 3 3 26 17 51 31 81 45 94 53 99 59 3 3 55 36 115 73 61
38 112 72 115 75 3 3 13 11 22 16 41 24 195 132 218 152 14 13 30 23 37 23 6
0 13 3 15 8 2 4 48 41 103 82 100 75 128 96 149 115 6 6 31 26 56 45 25 19 56
44 70 56 14 13 48 41 75 64 62 52 168 146 254 225 96 88 406 399 481 484 36
40 76 85 90 99 14 15 45 52 70 82 25 30 62 72 82 95 21 22 38 43 38 47 0 4 8
15 18 25 17 17 202 254 247 317 11 16 26 34 33 41 6 8 12 16 12 20 0 3 15 26
33 49 17 24 39 54 47 66 8 12 21 29 28 36 7 8 10 14 7 14 -4 0 6 17 22 38 42
54 123 180 123 191 0 5 4 11 8 13 10 4 140 219 140 232 0 5 5 12 10 15 21 13
308 565 382 736 5 11 22 49 38 85 16 36 37 88 47 115 10 28 22 55 25 60 4 6
13 28 20 50 7 22 16 45 20 50 4 6 16 37 28 70 11 33 32 92 47 130 38 101 125
368 125 383 0 7 4 20 10 30 9 16 87 293 95 337 2 11 13 58 25 105 12 47 23 94
26 105 2 11 6 29 8 40 17 77 35 165 40 190 2 17 14 82 25 145 21 116 29 164
36 220 2 17 6 43 9 58 3 15 8 50 11 77 3 28 7 66 10 85 3 19 7 60 10 90 12
130 15 168 20 210 27 262 27 1069 0 1265 -3 17 -7 64 -9 105 -3 41 -7 91 -10
110 -4 28 -16 131 -21 185 -1 6 -4 30 -8 55 -4 25 -10 63 -12 85 -10 77 -46
287 -69 395 -8 41 -18 89 -21 107 -3 18 -9 43 -14 56 -6 14 -7 27 -5 30 3 3 1
14 -4 24 -6 10 -12 32 -15 48 -12 62 -18 92 -33 145 -9 30 -19 71 -24 90 -51
225 -269 857 -370 1075 -12 27 -62 139 -86 195 -10 25 -66 137 -123 250 -57
113 -112 223 -123 245 -11 22 -27 48 -36 58 -8 9 -12 17 -9 17 3 0 -16 36 -43
81 -28 44 -50 85 -50 90 0 5 -4 9 -10 9 -5 0 -10 4 -10 9 0 5 -23 47 -51 93
-70 116 -73 121 -82 132 -4 6 -22 34 -39 61 -18 28 -35 52 -38 55 -3 3 -11 17
-19 33 -8 15 -18 27 -23 27 -4 0 -8 5 -8 11 0 9 -42 72 -60 89 -3 3 -18 25
-35 50 -70 106 -371 492 -445 571 -8 8 -21 25 -29 37 -8 11 -18 19 -23 16 -4
-3 -8 0 -8 5 0 12 -18 35 -77 97 -24 24 -43 49 -43 56 0 6 -3 9 -6 6 -3 -4
-22 12 -42 35 -94 107 -397 401 -557 542 -44 39 -82 72 -85 75 -3 3 -41 35
-85 70 -43 36 -91 75 -105 87 -28 24 -326 249 -378 285 -18 13 -53 38 -77 56
-24 17 -49 32 -54 32 -6 0 -11 5 -11 10 0 6 -7 10 -15 10 -8 0 -15 5 -15 10 0
6 -7 10 -15 10 -8 0 -15 3 -15 8 0 4 -23 21 -51 37 -28 17 -57 36 -64 43 -8 6
-16 12 -19 12 -3 0 -25 14 -49 30 -25 17 -50 30 -56 30 -6 0 -11 3 -11 8 0 4
-21 19 -47 32 -27 14 -50 28 -53 31 -3 3 -36 23 -75 44 -38 21 -73 44 -77 49
-4 6 -8 7 -8 2 0 -5 -6 -4 -12 2 -25 20 -145 83 -353 186 -324 159 -406 195
-810 351 -38 15 -81 29 -95 32 -13 2 -29 8 -35 12 -5 5 -22 11 -37 15 -15 3
-40 11 -55 18 -15 6 -32 12 -38 13 -5 2 -48 15 -95 30 -47 15 -96 29 -109 31
-13 3 -32 9 -41 14 -10 5 -30 12 -46 14 -16 3 -45 11 -64 17 -45 14 -217 59
-250 65 -14 3 -33 7 -42 10 -10 3 -30 7 -45 10 -16 3 -44 9 -63 14 -81 22
-464 92 -570 105 -25 3 -52 7 -60 10 -8 2 -40 6 -70 10 -30 3 -71 7 -90 9
-145 17 -183 21 -315 31 -44 3 -107 8 -140 11 -66 6 -832 14 -837 9z"/>
</g>
</svg>
